<?xml version="1.0" standalone="no"?>
<!DOCTYPE svg PUBLIC "-//W3C//DTD SVG 20010904//EN"
 "http://www.w3.org/TR/2001/REC-SVG-20010904/DTD/svg10.dtd">
<svg version="1.0" xmlns="http://www.w3.org/2000/svg"
 width="2400.000000pt" height="1792.000000pt" viewBox="0 0 2400.000000 1792.000000"
 preserveAspectRatio="xMidYMid meet">

<g transform="translate(0.000000,1792.000000) scale(0.100000,-0.100000)"
fill="#000000" stroke="none">
<path d="M11570 12115 c-149 -21 -386 -71 -614 -130 -116 -29 -246 -59 -289
-66 -91 -14 -213 -8 -342 18 -52 10 -134 18 -195 18 -99 -1 -109 -2 -172 -35
-66 -33 -186 -145 -328 -305 -24 -27 -95 -105 -158 -171 -130 -139 -165 -188
-232 -323 -100 -200 -447 -1154 -521 -1431 -17 -63 -34 -124 -39 -136 -4 -12
-22 -81 -40 -155 -17 -74 -37 -159 -45 -189 -29 -115 -85 -451 -95 -570 -5
-69 -12 -219 -14 -335 -4 -238 -2 -230 -97 -420 -72 -143 -82 -205 -55 -346
21 -113 20 -173 -4 -262 -17 -62 -20 -99 -18 -233 l3 -159 -33 -81 c-53 -131
-172 -266 -507 -579 -135 -126 -242 -258 -292 -360 -47 -95 -93 -239 -100
-313 -6 -67 -6 -67 -97 -177 -50 -60 -117 -141 -148 -180 -31 -38 -83 -101
-116 -138 -68 -77 -220 -275 -251 -328 -64 -110 -91 -162 -117 -232 -16 -42
-31 -77 -35 -77 -4 0 -10 21 -14 48 -11 78 -63 221 -101 278 -97 146 -241 213
-429 201 -88 -6 -129 -20 -190 -65 -89 -67 -125 -111 -178 -217 -58 -117 -71
-264 -42 -495 8 -63 21 -191 30 -285 8 -93 20 -197 25 -230 15 -104 4 -299
-31 -544 -33 -234 -33 -234 -62 -250 -71 -39 -178 -113 -209 -144 -19 -19 -42
-50 -52 -70 -23 -49 -52 -258 -61 -434 l-7 -143 -37 -32 c-55 -49 -94 -103
-145 -202 -26 -49 -55 -101 -64 -115 -51 -74 -82 -150 -82 -198 0 -55 9 -47
-150 -130 -41 -22 -91 -49 -110 -61 -19 -12 -42 -25 -50 -28 -8 -4 -36 -22
-61 -41 -26 -18 -51 -33 -57 -33 -6 0 -12 -4 -14 -8 -1 -5 -70 -54 -153 -110
-82 -56 -161 -110 -175 -121 -14 -12 -30 -21 -37 -21 -6 0 -13 -3 -15 -8 -1
-4 -27 -25 -57 -46 -30 -21 -59 -43 -65 -47 -6 -5 -22 -18 -36 -29 -25 -20
-69 -59 -144 -125 -22 -19 -44 -35 -48 -35 -4 0 -8 -6 -8 -12 0 -7 -17 -24
-37 -38 -42 -28 -367 -351 -455 -450 -31 -36 -77 -87 -102 -115 -25 -27 -46
-53 -46 -57 0 -5 460 -7 1022 -6 l1022 3 48 140 c101 297 122 384 158 675 12
91 25 183 30 205 10 46 40 301 75 632 30 283 35 316 90 573 45 215 55 272 105
615 17 116 35 239 41 275 50 320 49 412 -12 915 -14 112 -23 241 -23 340 0
146 2 165 23 220 48 121 140 228 239 276 67 33 230 33 313 1 69 -28 141 -89
186 -159 29 -46 44 -85 94 -249 14 -45 56 -428 70 -635 13 -197 1 -614 -27
-929 -9 -101 -19 -375 -24 -650 -7 -445 -10 -484 -33 -610 -137 -736 -148
-826 -104 -890 45 -68 128 -91 198 -55 35 19 132 113 176 173 15 20 31 39 35
42 32 25 170 265 363 635 207 396 237 447 371 621 120 157 207 294 311 494 28
52 60 113 73 135 12 22 38 69 58 105 19 36 38 67 41 70 4 3 22 34 40 69 18 34
40 77 50 95 20 37 62 137 126 299 26 66 61 151 80 190 64 139 116 268 141 350
116 374 190 468 366 468 102 0 186 -46 247 -135 50 -74 66 -137 65 -271 -1
-116 -4 -130 -81 -435 -73 -286 -140 -496 -191 -597 -26 -51 -157 -405 -233
-628 -93 -275 -159 -435 -294 -709 -122 -248 -147 -290 -432 -720 -143 -217
-130 -197 -175 -276 -46 -82 -120 -271 -147 -375 -21 -83 -51 -244 -51 -276 0
-19 132 -19 5355 -19 l5355 0 -6 28 c-3 15 -12 39 -19 54 -7 15 -16 45 -20 68
-4 22 -11 40 -16 40 -5 0 -9 9 -9 20 0 20 -4 29 -28 77 -7 13 -12 30 -12 38 0
8 -4 15 -9 15 -5 0 -15 25 -22 55 -7 30 -15 55 -20 55 -4 0 -10 12 -14 27 -4
16 -22 59 -41 97 -19 39 -34 78 -34 87 0 10 -4 19 -8 21 -10 4 -52 105 -52
124 0 8 -4 14 -8 14 -4 0 -20 37 -36 82 -15 46 -31 92 -36 103 -11 26 -24 67
-65 200 -18 61 -41 124 -49 140 -9 17 -16 40 -16 52 0 12 -4 25 -10 28 -5 3
-10 14 -10 23 0 10 -9 35 -20 57 -11 22 -20 45 -20 52 0 7 -4 21 -10 31 -5 9
-32 65 -60 124 -49 105 -134 250 -151 256 -5 2 -9 9 -9 16 0 7 -8 21 -18 32
-10 10 -38 46 -64 79 -52 67 -120 135 -223 220 -38 33 -75 64 -81 69 -80 79
-209 166 -399 270 -103 56 -166 87 -414 200 -79 37 -156 75 -170 86 -40 28
-660 340 -677 340 -8 0 -14 4 -14 9 0 5 -11 12 -25 15 -16 4 -25 13 -25 26 0
20 70 251 139 460 21 63 68 205 105 316 75 227 104 291 211 454 41 63 94 158
117 210 36 81 42 107 46 180 5 101 -14 183 -62 280 -33 64 -33 68 -39 230 -7
210 -32 315 -116 482 -60 119 -61 128 -15 128 42 0 116 45 164 101 29 33 50
62 48 64 -2 3 -22 -5 -44 -18 -55 -31 -168 -29 -243 3 -47 21 -63 36 -136 134
-98 131 -161 203 -270 308 -106 101 -132 122 -315 243 -85 57 -199 138 -253
180 -92 71 -98 78 -92 105 4 20 -2 44 -20 81 -56 109 -84 271 -115 654 -28
357 -29 370 -60 615 -11 86 -57 379 -87 545 -22 128 -98 438 -144 587 -127
415 -345 797 -726 1273 -88 110 -205 269 -261 352 -131 196 -230 296 -359 362
-23 11 -122 40 -220 64 -216 54 -276 81 -425 199 -62 49 -137 104 -166 123
-104 69 -284 96 -462 70z m315 -62 c82 -20 101 -31 254 -152 221 -173 208
-167 478 -236 226 -57 267 -78 368 -180 65 -65 191 -230 215 -280 15 -31 176
-245 200 -265 14 -11 176 -216 236 -297 35 -48 64 -96 64 -106 0 -10 4 -16 9
-13 14 9 182 -275 266 -449 145 -298 238 -609 319 -1066 53 -297 147 -1071
133 -1086 -2 -1 -41 46 -87 104 -110 138 -334 365 -430 435 -150 109 -321 187
-581 262 -371 108 -746 148 -1369 145 -468 -2 -606 -12 -889 -60 -329 -56
-552 -105 -851 -186 -431 -116 -568 -177 -753 -335 -257 -219 -266 -224 -324
-193 -18 10 -33 21 -33 25 0 11 -67 36 -135 50 -113 23 -123 35 -146 175 -14
87 -29 124 -75 187 -20 27 -46 77 -57 111 -20 58 -22 83 -22 382 l0 320 58
205 c99 349 318 980 481 1383 100 248 134 303 296 472 63 66 144 154 179 195
116 135 232 243 296 275 54 27 69 30 150 29 50 -1 137 -11 194 -23 117 -24
294 -29 376 -11 28 6 176 42 330 80 266 65 517 115 615 123 69 5 169 -4 235
-20z m-3299 -3186 c-3 -35 -2 -108 4 -163 9 -90 15 -109 65 -209 39 -78 61
-138 75 -204 35 -166 64 -199 199 -224 60 -11 98 -25 151 -57 62 -38 76 -42
115 -38 57 7 110 42 216 142 123 115 270 208 429 270 82 32 314 97 445 124
980 205 1077 217 1740 216 395 0 510 -5 765 -30 294 -29 707 -137 905 -237
163 -82 348 -238 546 -461 24 -27 78 -88 121 -134 l76 -84 11 -87 c6 -47 16
-116 21 -153 15 -98 13 -100 -28 -23 -95 175 -159 270 -249 366 -195 209 -298
291 -482 383 -270 135 -597 211 -1061 247 -201 15 -957 6 -1245 -16 -513 -38
-991 -128 -1404 -264 -224 -74 -496 -233 -838 -490 -141 -105 -376 -271 -548
-386 -75 -51 -168 -144 -202 -204 -15 -25 -33 -52 -40 -59 -22 -23 -16 72 13
196 l27 113 -16 93 c-21 114 -22 230 -2 285 8 24 34 77 58 119 81 144 79 135
88 452 4 157 15 346 23 420 9 74 16 141 16 148 0 6 3 12 6 12 4 0 4 -28 0 -63z
m4154 -541 c220 -32 369 -62 497 -97 269 -75 494 -176 623 -279 76 -60 201
-193 249 -264 l26 -39 6 -381 c4 -210 12 -464 19 -566 24 -365 -12 -836 -85
-1103 -14 -51 -48 -155 -74 -232 -58 -165 -79 -230 -161 -508 -33 -115 -65
-218 -70 -230 -5 -12 -26 -67 -46 -122 -38 -104 -150 -371 -186 -440 -104
-205 -294 -470 -537 -749 -63 -72 -139 -162 -169 -201 -266 -336 -652 -493
-1157 -472 -307 13 -556 78 -775 203 -129 74 -190 121 -323 250 -191 185 -212
201 -462 355 -66 40 -125 78 -131 84 -7 5 -27 21 -45 35 -59 44 -245 234 -274
280 -16 25 -43 63 -60 85 -91 118 -203 346 -271 552 -181 544 -339 1476 -351
2073 -4 185 -1 288 11 420 21 217 44 376 61 415 34 83 461 387 762 543 173 89
228 111 403 162 455 131 855 195 1470 235 279 18 905 13 1050 -9z m2224 -1531
c169 -106 325 -238 423 -358 61 -75 97 -127 88 -127 -15 0 -335 269 -445 374
-69 65 -136 130 -150 142 -41 39 -8 27 84 -31z m-7004 -571 c-28 -36 -50 -69
-50 -74 0 -5 -7 -7 -15 -4 -18 7 -20 -12 -2 -20 6 -3 3 -4 -8 -3 -14 1 -20 -4
-19 -15 1 -10 -2 -15 -7 -12 -11 6 -12 31 -1 36 6 2 57 61 127 145 5 7 13 12
17 13 4 0 -15 -29 -42 -66z m-159 -179 c-23 -32 -41 -54 -41 -49 0 12 72 116
77 110 2 -2 -14 -30 -36 -61z m7726 -12 c113 -85 162 -158 223 -328 28 -80 66
-292 55 -303 -2 -3 -19 8 -38 24 -18 16 -46 39 -61 50 -21 17 -30 37 -42 90
-24 117 -53 193 -140 366 -46 93 -84 171 -83 175 0 5 3 2 6 -5 2 -7 38 -38 80
-69z m-7673 32 c-4 -8 -8 -15 -10 -15 -2 0 -4 7 -4 15 0 8 4 15 10 15 5 0 7
-7 4 -15z m-14 -34 c0 -6 -4 -12 -8 -15 -5 -3 -9 1 -9 9 0 8 4 15 9 15 4 0 8
-4 8 -9z m7340 -156 c14 -19 14 -19 -2 -6 -10 7 -18 18 -18 24 0 6 1 8 3 6 1
-2 9 -13 17 -24z m149 -187 c-7 -14 -6 -18 6 -18 8 0 15 5 15 11 0 18 20 -1
39 -40 19 -36 19 -37 0 -38 -13 -1 -19 5 -19 19 0 17 -2 18 -15 8 -18 -15 -20
1 -2 19 10 11 9 12 -1 7 -16 -10 -42 11 -42 34 0 9 7 17 14 17 11 0 13 -5 5
-19z m-484 -338 c3 -5 1 -10 -4 -10 -6 0 -11 5 -11 10 0 6 2 10 4 10 3 0 8 -4
11 -10z m-78 -865 c0 -8 -5 -15 -11 -15 -6 0 -4 -5 4 -10 13 -8 12 -10 -3 -10
-11 0 -15 -4 -11 -12 4 -7 3 -8 -4 -4 -7 4 -12 1 -12 -8 0 -9 -7 -16 -16 -16
-9 0 -12 5 -8 13 7 11 58 77 60 77 0 0 1 -7 1 -15z m-8024 -927 c61 -256 144
-463 261 -653 27 -44 108 -167 180 -274 130 -193 131 -195 130 -249 -1 -39
-11 -72 -38 -126 -56 -114 -105 -153 -202 -163 -90 -10 -132 13 -260 141 -61
61 -126 133 -144 161 l-34 50 2 115 c1 63 5 138 7 165 3 28 12 172 20 320 8
149 17 304 20 345 2 41 4 121 5 178 0 140 17 137 53 -10z m6009 -830 c-3 -231
9 -372 54 -596 13 -68 24 -136 24 -151 0 -29 -39 -88 -80 -119 -27 -21 -208
-132 -215 -132 -2 0 -30 -12 -60 -26 -125 -56 -348 -92 -510 -80 -196 15 -423
56 -552 100 -158 54 -166 64 -278 331 -36 88 -77 185 -90 215 -13 30 -30 75
-38 100 -53 154 -90 257 -126 342 -23 54 -41 100 -41 103 0 3 19 -7 43 -22
281 -177 774 -253 1192 -183 147 25 251 59 376 123 98 50 262 159 289 192 7 8
13 15 14 15 0 0 0 -96 -2 -212z m-7142 -125 c-16 -111 -41 -252 -55 -314 -48
-215 -76 -386 -100 -617 -13 -128 -27 -238 -31 -243 -15 -24 -24 15 -39 166
-28 273 -34 439 -24 640 15 300 34 387 97 447 32 31 174 129 179 124 1 -1 -11
-92 -27 -203z m-295 -789 c22 -225 24 -216 -32 -252 -68 -44 -158 -83 -202
-89 -36 -5 -39 -3 -50 27 -15 43 -6 71 47 160 25 41 63 112 84 158 42 91 131
200 135 166 2 -11 9 -87 18 -170z"/>
<path d="M10012 10892 c-48 -22 -122 -82 -122 -98 0 -3 -22 -103 -49 -222 -64
-283 -66 -299 -44 -342 29 -56 94 -82 223 -88 105 -5 287 16 335 38 36 17 267
61 450 85 701 95 928 152 1113 281 l62 43 25 -40 c34 -53 119 -139 175 -176
97 -63 331 -162 530 -223 58 -18 220 -70 360 -115 413 -135 509 -156 625 -136
132 23 182 67 171 149 -11 84 -128 293 -151 270 -3 -3 3 -45 13 -94 24 -121
19 -141 -43 -173 -42 -22 -62 -26 -130 -25 -95 2 -136 13 -399 99 -110 36
-203 65 -208 65 -13 0 -318 115 -378 143 -198 91 -282 134 -288 150 -2 4 -9 7
-16 7 -16 0 -70 58 -89 95 -8 17 -25 70 -37 119 -29 111 -38 120 -103 111 -64
-8 -82 -18 -136 -72 -94 -94 -237 -176 -396 -226 -102 -32 -204 -54 -550 -117
-154 -28 -374 -74 -490 -102 -251 -62 -342 -67 -462 -30 l-73 23 0 42 c1 23 5
60 9 82 11 50 97 364 118 427 23 73 17 80 -45 50z"/>
<path d="M10055 7844 c-67 -11 -194 -56 -257 -91 -88 -50 -246 -200 -254 -242
-4 -17 -4 -31 -1 -31 3 0 75 20 159 44 304 87 488 87 953 1 409 -76 485 -81
500 -34 l7 21 24 -23 c22 -20 24 -21 24 -4 0 27 -90 155 -116 165 -12 5 -38
29 -58 53 -44 53 -79 74 -46 26 30 -42 19 -46 -23 -10 -34 31 -54 40 -42 21 9
-15 -16 -12 -34 4 -16 13 -236 51 -476 81 -131 17 -312 26 -360 19z"/>
<path d="M13495 7811 c-530 -78 -765 -141 -849 -230 -17 -17 -35 -31 -40 -31
-18 0 -72 -48 -63 -56 4 -4 19 3 33 17 l26 24 -13 -28 c-9 -20 -9 -31 -2 -38
17 -17 251 -23 386 -10 67 7 167 23 222 36 176 41 245 48 402 42 149 -6 224
-19 372 -68 69 -23 81 -19 81 29 0 60 -80 172 -163 227 -101 66 -270 103 -392
86z"/>
<path d="M10330 7340 c-95 -9 -226 -44 -310 -83 -96 -43 -234 -146 -218 -162
3 -3 22 9 44 26 63 51 230 127 339 154 121 31 270 41 386 27 143 -18 353 -101
458 -181 30 -22 58 -41 63 -41 16 0 8 19 -19 46 -71 71 -255 162 -398 197 -75
19 -246 27 -345 17z"/>
<path d="M12985 7290 c-160 -34 -266 -81 -352 -155 -72 -62 -53 -76 26 -20
134 96 336 155 536 155 187 1 291 -26 440 -111 48 -28 89 -48 91 -46 10 10
-103 99 -160 126 -105 50 -168 63 -336 67 -127 3 -171 0 -245 -16z"/>
<path d="M10284 7256 c-96 -25 -164 -56 -235 -105 -105 -73 -184 -138 -187
-154 -3 -15 9 -11 71 19 66 33 77 36 91 23 38 -34 50 -42 104 -64 80 -32 157
-50 301 -70 109 -15 136 -16 210 -5 53 8 169 13 304 12 119 0 217 3 217 7 0
14 -81 84 -150 131 -36 24 -87 61 -113 82 -126 99 -228 134 -412 143 -95 5
-122 2 -201 -19z m236 -48 c0 -4 -19 -8 -42 -8 -41 0 -42 -1 -18 -13 34 -17
35 -68 3 -82 -31 -13 -29 -28 8 -59 19 -17 43 -26 64 -26 48 0 95 42 95 85 0
42 -40 92 -78 98 -22 3 -21 4 9 6 20 0 65 -8 101 -20 59 -18 66 -23 72 -51 15
-75 -2 -131 -52 -176 -35 -31 -56 -35 -167 -30 l-95 3 -34 40 c-37 42 -46 72
-45 139 0 31 2 36 8 21 5 -11 7 -23 4 -27 -2 -4 3 -5 11 -2 17 7 17 7 21 42 1
12 6 26 10 30 5 4 5 -1 2 -10 -3 -10 -2 -20 3 -23 9 -6 14 8 11 28 -3 15 26
35 55 39 47 6 54 5 54 -4z m-196 -15 c-4 -10 -10 -48 -12 -84 -3 -53 1 -75 17
-107 11 -22 25 -43 31 -47 5 -3 10 -10 10 -16 0 -16 -109 6 -212 43 -57 20
-122 72 -115 92 7 21 84 67 168 102 97 39 125 43 113 17z m481 -53 c4 -6 37
-24 73 -41 37 -16 81 -42 97 -58 17 -15 47 -38 67 -52 37 -23 54 -46 43 -57
-3 -3 -28 0 -56 6 -59 14 -99 15 -99 4 0 -5 -14 -6 -31 -4 -18 3 -29 1 -26 -4
3 -5 -38 -11 -90 -12 l-94 -4 34 46 c32 41 57 114 57 166 0 21 15 27 25 10z"/>
<path d="M10630 7149 c0 -5 5 -7 10 -4 6 3 10 8 10 11 0 2 -4 4 -10 4 -5 0
-10 -5 -10 -11z"/>
<path d="M13050 7230 c-120 -14 -266 -81 -382 -173 -103 -82 -178 -151 -178
-164 0 -13 61 -21 170 -22 41 -1 112 -6 156 -11 138 -17 324 -22 324 -9 0 7
11 10 28 7 15 -3 52 -2 82 3 l55 7 -58 -1 c-43 -2 -54 1 -41 8 80 47 108 107
102 219 l-3 75 25 -6 c43 -10 184 -84 213 -111 27 -26 36 -52 17 -52 -5 0 -14
-9 -20 -19 -9 -18 -8 -19 22 -10 17 5 49 6 70 3 55 -9 50 15 -16 81 -142 143
-338 203 -566 175z m170 -52 c0 -4 5 -8 10 -8 6 0 19 -9 31 -21 15 -15 20 -33
20 -73 0 -63 -18 -111 -56 -149 -28 -27 -29 -27 -142 -24 -101 2 -117 5 -129
22 -8 11 -18 20 -22 20 -4 0 -6 5 -6 12 1 7 -3 11 -8 10 -12 -2 -39 68 -31 77
4 3 16 6 27 6 17 0 18 -2 6 -10 -11 -7 -3 -9 28 -6 36 3 42 1 38 -11 -4 -11
-2 -13 9 -9 9 3 15 0 15 -10 0 -8 4 -13 9 -9 5 3 12 1 16 -5 3 -5 24 -10 46
-10 116 0 122 162 7 188 -32 7 -31 7 17 12 78 8 115 7 115 -2z m-177 -15 c-7
-2 -13 -22 -13 -43 0 -28 -6 -43 -22 -54 -26 -18 -58 -5 -58 24 0 11 -5 20
-11 20 -7 0 -9 -10 -5 -25 4 -15 2 -25 -4 -25 -6 0 -8 5 -5 10 3 6 1 10 -4 10
-6 0 -11 -4 -11 -9 0 -5 -7 -11 -15 -15 -12 -4 -15 3 -15 35 0 37 1 39 16 25
19 -20 21 -20 21 -1 0 8 -5 12 -11 9 -6 -3 -2 2 9 11 18 14 20 14 27 -2 6 -16
7 -15 7 4 1 14 9 23 24 26 31 6 84 6 70 0z m-181 -105 c-3 -74 22 -128 77
-165 31 -21 32 -23 10 -22 -13 0 -103 11 -199 23 l-175 23 56 54 c45 43 206
148 229 149 3 0 4 -28 2 -62z"/>
<path d="M12181 6494 c-2 -106 50 -477 64 -462 5 5 -42 427 -54 483 -8 39 -9
38 -10 -21z"/>
<path d="M11172 5511 c-74 -80 -114 -258 -78 -346 43 -108 99 -142 264 -161
95 -11 123 -19 170 -46 32 -17 59 -34 62 -38 33 -40 175 -107 255 -120 57 -9
73 -8 132 11 69 22 236 101 263 124 8 7 38 15 65 18 68 7 105 17 105 29 0 5
-4 7 -9 4 -5 -4 -11 -1 -13 4 -6 18 -111 15 -148 -3 -18 -9 -40 -17 -48 -17
-9 0 -12 -3 -9 -6 10 -11 -118 -91 -175 -110 -78 -25 -206 -16 -280 21 -32 15
-58 32 -58 36 0 4 -8 10 -19 14 -10 3 -39 25 -63 49 -70 68 -140 101 -212 101
-52 0 -61 -2 -58 -17 2 -15 -3 -17 -30 -11 -39 7 -75 24 -104 50 -83 72 -83
258 0 387 35 55 28 71 -12 27z"/>
<path d="M12474 5465 c2 -11 17 -49 32 -85 33 -78 44 -222 24 -295 -12 -42
-48 -82 -90 -98 -13 -5 -12 -6 1 -6 15 -1 50 22 92 60 22 20 47 108 47 164 0
82 -41 194 -95 260 l-16 20 5 -20z"/>
<path d="M13160 4645 c0 -5 4 -16 9 -23 6 -11 10 -10 15 4 3 9 4 19 1 22 -3 3
-5 -1 -5 -9 0 -11 -2 -11 -10 1 -5 8 -10 11 -10 5z"/>
<path d="M10455 4580 c-10 -16 1 -26 58 -57 28 -16 61 -34 72 -41 69 -40 274
-124 387 -159 10 -3 15 -9 12 -14 -3 -5 2 -6 10 -3 17 7 407 -73 552 -112 86
-24 118 -28 249 -28 157 -1 555 33 705 60 181 32 372 108 447 178 46 43 19 40
-78 -8 -50 -25 -99 -46 -108 -46 -10 0 -21 -4 -27 -9 -60 -56 -570 -122 -940
-122 -94 0 -138 6 -261 35 -81 19 -204 44 -273 56 -144 24 -362 80 -408 104
-17 9 -36 16 -42 16 -7 0 -44 16 -83 35 -39 19 -74 35 -78 35 -4 0 -43 20 -87
45 -84 47 -97 51 -107 35z"/>
</g>
</svg>
